<mxfile host="app.diagrams.net" modified="2023-06-07T20:22:09.484Z" agent="Mozilla/5.0 (Windows NT 10.0; Win64; x64) AppleWebKit/537.36 (KHTML, like Gecko) Chrome/112.0.0.0 Safari/537.36 OPR/98.0.0.0" etag="5OYMq6hxwjJjkS_vT60-" version="21.3.7" type="github">
  <diagram name="Página-1" id="EO1i5Yh0TXApXWwIkE9N">
    <mxGraphModel dx="1199" dy="1806" grid="1" gridSize="10" guides="1" tooltips="1" connect="1" arrows="1" fold="1" page="1" pageScale="1" pageWidth="827" pageHeight="1169" math="0" shadow="0">
      <root>
        <mxCell id="0" />
        <mxCell id="1" parent="0" />
        <mxCell id="UNjLjwTfi98Qa-1zKaNa-1" value="&lt;font style=&quot;font-size: 18px;&quot;&gt;Medio de prensa&lt;/font&gt;" style="rounded=0;whiteSpace=wrap;html=1;" parent="1" vertex="1">
          <mxGeometry x="600" y="120" width="160" height="60" as="geometry" />
        </mxCell>
        <mxCell id="UNjLjwTfi98Qa-1zKaNa-3" value="&lt;span style=&quot;font-size: 18px;&quot;&gt;Ubicación&lt;/span&gt;" style="rounded=0;whiteSpace=wrap;html=1;" parent="1" vertex="1">
          <mxGeometry x="280" y="400" width="160" height="60" as="geometry" />
        </mxCell>
        <mxCell id="UNjLjwTfi98Qa-1zKaNa-8" value="&lt;span style=&quot;font-size: 18px;&quot;&gt;Fundador&lt;/span&gt;" style="rounded=0;whiteSpace=wrap;html=1;" parent="1" vertex="1">
          <mxGeometry x="890" y="400" width="160" height="60" as="geometry" />
        </mxCell>
        <mxCell id="UNjLjwTfi98Qa-1zKaNa-9" value="&lt;span style=&quot;font-size: 18px;&quot;&gt;Red social&lt;/span&gt;" style="rounded=0;whiteSpace=wrap;html=1;" parent="1" vertex="1">
          <mxGeometry x="260" y="-100" width="160" height="60" as="geometry" />
        </mxCell>
        <mxCell id="UNjLjwTfi98Qa-1zKaNa-10" value="&lt;span style=&quot;font-size: 18px;&quot;&gt;Categoría&lt;/span&gt;" style="rounded=0;whiteSpace=wrap;html=1;" parent="1" vertex="1">
          <mxGeometry x="890" y="-100" width="160" height="60" as="geometry" />
        </mxCell>
        <mxCell id="rar-CTMczom2aFT5S0ZN-1" value="tiene" style="rhombus;whiteSpace=wrap;html=1;" parent="1" vertex="1">
          <mxGeometry x="440" y="10" width="100" height="80" as="geometry" />
        </mxCell>
        <mxCell id="rar-CTMczom2aFT5S0ZN-2" value="abarca" style="rhombus;whiteSpace=wrap;html=1;" parent="1" vertex="1">
          <mxGeometry x="810" width="100" height="80" as="geometry" />
        </mxCell>
        <mxCell id="rar-CTMczom2aFT5S0ZN-3" value="se_ubica" style="rhombus;whiteSpace=wrap;html=1;" parent="1" vertex="1">
          <mxGeometry x="440" y="240" width="100" height="80" as="geometry" />
        </mxCell>
        <mxCell id="rar-CTMczom2aFT5S0ZN-4" value="fundacion" style="rhombus;whiteSpace=wrap;html=1;" parent="1" vertex="1">
          <mxGeometry x="810" y="240" width="100" height="80" as="geometry" />
        </mxCell>
        <mxCell id="rar-CTMczom2aFT5S0ZN-5" value="" style="endArrow=none;html=1;rounded=0;entryX=1;entryY=1;entryDx=0;entryDy=0;exitX=0;exitY=0;exitDx=0;exitDy=0;" parent="1" source="UNjLjwTfi98Qa-1zKaNa-1" target="rar-CTMczom2aFT5S0ZN-1" edge="1">
          <mxGeometry width="50" height="50" relative="1" as="geometry">
            <mxPoint x="620" y="130" as="sourcePoint" />
            <mxPoint x="670" y="80" as="targetPoint" />
          </mxGeometry>
        </mxCell>
        <mxCell id="rar-CTMczom2aFT5S0ZN-8" value="" style="endArrow=none;html=1;rounded=0;entryX=1;entryY=1;entryDx=0;entryDy=0;exitX=0;exitY=0;exitDx=0;exitDy=0;" parent="1" source="rar-CTMczom2aFT5S0ZN-1" target="UNjLjwTfi98Qa-1zKaNa-9" edge="1">
          <mxGeometry width="50" height="50" relative="1" as="geometry">
            <mxPoint x="620" y="130" as="sourcePoint" />
            <mxPoint x="670" y="80" as="targetPoint" />
          </mxGeometry>
        </mxCell>
        <mxCell id="rar-CTMczom2aFT5S0ZN-10" value="" style="endArrow=none;html=1;rounded=0;entryX=0;entryY=1;entryDx=0;entryDy=0;exitX=1;exitY=0;exitDx=0;exitDy=0;" parent="1" source="rar-CTMczom2aFT5S0ZN-2" target="UNjLjwTfi98Qa-1zKaNa-10" edge="1">
          <mxGeometry width="50" height="50" relative="1" as="geometry">
            <mxPoint x="620" y="130" as="sourcePoint" />
            <mxPoint x="670" y="80" as="targetPoint" />
          </mxGeometry>
        </mxCell>
        <mxCell id="rar-CTMczom2aFT5S0ZN-11" value="" style="endArrow=none;html=1;rounded=0;entryX=0;entryY=1;entryDx=0;entryDy=0;exitX=1;exitY=0;exitDx=0;exitDy=0;" parent="1" source="UNjLjwTfi98Qa-1zKaNa-1" target="rar-CTMczom2aFT5S0ZN-2" edge="1">
          <mxGeometry width="50" height="50" relative="1" as="geometry">
            <mxPoint x="620" y="130" as="sourcePoint" />
            <mxPoint x="670" y="80" as="targetPoint" />
          </mxGeometry>
        </mxCell>
        <mxCell id="rar-CTMczom2aFT5S0ZN-12" value="" style="endArrow=none;html=1;rounded=0;exitX=1;exitY=0;exitDx=0;exitDy=0;entryX=0;entryY=1;entryDx=0;entryDy=0;" parent="1" source="rar-CTMczom2aFT5S0ZN-3" target="UNjLjwTfi98Qa-1zKaNa-1" edge="1">
          <mxGeometry width="50" height="50" relative="1" as="geometry">
            <mxPoint x="620" y="130" as="sourcePoint" />
            <mxPoint x="670" y="80" as="targetPoint" />
          </mxGeometry>
        </mxCell>
        <mxCell id="rar-CTMczom2aFT5S0ZN-13" value="" style="endArrow=none;html=1;rounded=0;exitX=1;exitY=0;exitDx=0;exitDy=0;entryX=0;entryY=1;entryDx=0;entryDy=0;" parent="1" source="UNjLjwTfi98Qa-1zKaNa-3" target="rar-CTMczom2aFT5S0ZN-3" edge="1">
          <mxGeometry width="50" height="50" relative="1" as="geometry">
            <mxPoint x="620" y="190" as="sourcePoint" />
            <mxPoint x="670" y="140" as="targetPoint" />
          </mxGeometry>
        </mxCell>
        <mxCell id="rar-CTMczom2aFT5S0ZN-14" value="" style="endArrow=none;html=1;rounded=0;entryX=1;entryY=1;entryDx=0;entryDy=0;exitX=0;exitY=0;exitDx=0;exitDy=0;" parent="1" source="rar-CTMczom2aFT5S0ZN-4" target="UNjLjwTfi98Qa-1zKaNa-1" edge="1">
          <mxGeometry width="50" height="50" relative="1" as="geometry">
            <mxPoint x="620" y="230" as="sourcePoint" />
            <mxPoint x="670" y="180" as="targetPoint" />
          </mxGeometry>
        </mxCell>
        <mxCell id="rar-CTMczom2aFT5S0ZN-15" value="" style="endArrow=none;html=1;rounded=0;exitX=0;exitY=0;exitDx=0;exitDy=0;entryX=1;entryY=1;entryDx=0;entryDy=0;" parent="1" source="UNjLjwTfi98Qa-1zKaNa-8" target="rar-CTMczom2aFT5S0ZN-4" edge="1">
          <mxGeometry width="50" height="50" relative="1" as="geometry">
            <mxPoint x="620" y="230" as="sourcePoint" />
            <mxPoint x="670" y="180" as="targetPoint" />
          </mxGeometry>
        </mxCell>
        <mxCell id="rar-CTMczom2aFT5S0ZN-16" value="Nombre" style="ellipse;whiteSpace=wrap;html=1;" parent="1" vertex="1">
          <mxGeometry x="815" y="470" width="90" height="40" as="geometry" />
        </mxCell>
        <mxCell id="rar-CTMczom2aFT5S0ZN-17" value="Apellido" style="ellipse;whiteSpace=wrap;html=1;" parent="1" vertex="1">
          <mxGeometry x="920" y="480" width="90" height="40" as="geometry" />
        </mxCell>
        <mxCell id="rar-CTMczom2aFT5S0ZN-18" value="Nombre" style="ellipse;whiteSpace=wrap;html=1;" parent="1" vertex="1">
          <mxGeometry x="130" y="-140" width="90" height="40" as="geometry" />
        </mxCell>
        <mxCell id="rar-CTMczom2aFT5S0ZN-19" value="Usuario" style="ellipse;whiteSpace=wrap;html=1;" parent="1" vertex="1">
          <mxGeometry x="210" y="-180" width="90" height="40" as="geometry" />
        </mxCell>
        <mxCell id="rar-CTMczom2aFT5S0ZN-20" value="Seguidores" style="ellipse;whiteSpace=wrap;html=1;" parent="1" vertex="1">
          <mxGeometry x="315" y="-190" width="90" height="40" as="geometry" />
        </mxCell>
        <mxCell id="rar-CTMczom2aFT5S0ZN-21" value="act_seguidores" style="ellipse;whiteSpace=wrap;html=1;" parent="1" vertex="1">
          <mxGeometry x="414" y="-170" width="106" height="50" as="geometry" />
        </mxCell>
        <mxCell id="rar-CTMczom2aFT5S0ZN-22" value="nombre" style="ellipse;whiteSpace=wrap;html=1;" parent="1" vertex="1">
          <mxGeometry x="815" y="-160" width="90" height="40" as="geometry" />
        </mxCell>
        <mxCell id="rar-CTMczom2aFT5S0ZN-23" value="url_principal" style="ellipse;whiteSpace=wrap;html=1;" parent="1" vertex="1">
          <mxGeometry x="940" y="-170" width="90" height="40" as="geometry" />
        </mxCell>
        <mxCell id="T7eWR32zqZG63hrGAhfz-1" value="url_ejemplo" style="ellipse;whiteSpace=wrap;html=1;" parent="1" vertex="1">
          <mxGeometry x="1060" y="-140" width="90" height="40" as="geometry" />
        </mxCell>
        <mxCell id="T7eWR32zqZG63hrGAhfz-2" value="xpath" style="ellipse;whiteSpace=wrap;html=1;" parent="1" vertex="1">
          <mxGeometry x="1100" y="-80" width="90" height="40" as="geometry" />
        </mxCell>
        <mxCell id="T7eWR32zqZG63hrGAhfz-3" value="&lt;span style=&quot;font-size: 18px;&quot;&gt;Ejemplo noticia xpath&lt;/span&gt;" style="rounded=0;whiteSpace=wrap;html=1;" parent="1" vertex="1">
          <mxGeometry x="1000" y="120" width="200" height="60" as="geometry" />
        </mxCell>
        <mxCell id="T7eWR32zqZG63hrGAhfz-4" value="Comunidad_autonoma" style="ellipse;whiteSpace=wrap;html=1;" parent="1" vertex="1">
          <mxGeometry x="100" y="430" width="150" height="40" as="geometry" />
        </mxCell>
        <mxCell id="T7eWR32zqZG63hrGAhfz-5" value="Nacionalidad" style="ellipse;whiteSpace=wrap;html=1;" parent="1" vertex="1">
          <mxGeometry x="1040" y="480" width="90" height="40" as="geometry" />
        </mxCell>
        <mxCell id="T7eWR32zqZG63hrGAhfz-6" value="Profesion" style="ellipse;whiteSpace=wrap;html=1;" parent="1" vertex="1">
          <mxGeometry x="1090" y="420" width="90" height="40" as="geometry" />
        </mxCell>
        <mxCell id="T7eWR32zqZG63hrGAhfz-7" value="Ciudad" style="ellipse;whiteSpace=wrap;html=1;" parent="1" vertex="1">
          <mxGeometry x="210" y="480" width="90" height="40" as="geometry" />
        </mxCell>
        <mxCell id="T7eWR32zqZG63hrGAhfz-8" value="tiene" style="rhombus;whiteSpace=wrap;html=1;" parent="1" vertex="1">
          <mxGeometry x="827" y="110" width="100" height="80" as="geometry" />
        </mxCell>
        <mxCell id="T7eWR32zqZG63hrGAhfz-9" value="" style="endArrow=none;html=1;rounded=0;exitX=1;exitY=0.5;exitDx=0;exitDy=0;entryX=0;entryY=0.5;entryDx=0;entryDy=0;" parent="1" source="UNjLjwTfi98Qa-1zKaNa-1" target="T7eWR32zqZG63hrGAhfz-8" edge="1">
          <mxGeometry width="50" height="50" relative="1" as="geometry">
            <mxPoint x="810" y="110" as="sourcePoint" />
            <mxPoint x="860" y="60" as="targetPoint" />
          </mxGeometry>
        </mxCell>
        <mxCell id="T7eWR32zqZG63hrGAhfz-10" value="" style="endArrow=none;html=1;rounded=0;entryX=0;entryY=0.5;entryDx=0;entryDy=0;exitX=1;exitY=0.5;exitDx=0;exitDy=0;" parent="1" source="T7eWR32zqZG63hrGAhfz-8" target="T7eWR32zqZG63hrGAhfz-3" edge="1">
          <mxGeometry width="50" height="50" relative="1" as="geometry">
            <mxPoint x="810" y="110" as="sourcePoint" />
            <mxPoint x="860" y="60" as="targetPoint" />
          </mxGeometry>
        </mxCell>
        <mxCell id="T7eWR32zqZG63hrGAhfz-12" value="N" style="text;html=1;strokeColor=none;fillColor=none;align=center;verticalAlign=middle;whiteSpace=wrap;rounded=0;" parent="1" vertex="1">
          <mxGeometry x="405" y="-50" width="60" height="30" as="geometry" />
        </mxCell>
        <mxCell id="T7eWR32zqZG63hrGAhfz-14" value="1" style="text;html=1;strokeColor=none;fillColor=none;align=center;verticalAlign=middle;whiteSpace=wrap;rounded=0;" parent="1" vertex="1">
          <mxGeometry x="570" y="90" width="60" height="30" as="geometry" />
        </mxCell>
        <mxCell id="T7eWR32zqZG63hrGAhfz-15" value="1" style="text;html=1;strokeColor=none;fillColor=none;align=center;verticalAlign=middle;whiteSpace=wrap;rounded=0;" parent="1" vertex="1">
          <mxGeometry x="550" y="160" width="60" height="30" as="geometry" />
        </mxCell>
        <mxCell id="T7eWR32zqZG63hrGAhfz-16" value="N" style="text;html=1;strokeColor=none;fillColor=none;align=center;verticalAlign=middle;whiteSpace=wrap;rounded=0;" parent="1" vertex="1">
          <mxGeometry x="720" y="180" width="60" height="30" as="geometry" />
        </mxCell>
        <mxCell id="T7eWR32zqZG63hrGAhfz-17" value="1" style="text;html=1;strokeColor=none;fillColor=none;align=center;verticalAlign=middle;whiteSpace=wrap;rounded=0;" parent="1" vertex="1">
          <mxGeometry x="750" y="150" width="60" height="30" as="geometry" />
        </mxCell>
        <mxCell id="T7eWR32zqZG63hrGAhfz-18" value="N" style="text;html=1;strokeColor=none;fillColor=none;align=center;verticalAlign=middle;whiteSpace=wrap;rounded=0;" parent="1" vertex="1">
          <mxGeometry x="845" y="-40" width="60" height="30" as="geometry" />
        </mxCell>
        <mxCell id="T7eWR32zqZG63hrGAhfz-19" value="1" style="text;html=1;strokeColor=none;fillColor=none;align=center;verticalAlign=middle;whiteSpace=wrap;rounded=0;" parent="1" vertex="1">
          <mxGeometry x="955" y="150" width="60" height="30" as="geometry" />
        </mxCell>
        <mxCell id="T7eWR32zqZG63hrGAhfz-20" value="N" style="text;html=1;strokeColor=none;fillColor=none;align=center;verticalAlign=middle;whiteSpace=wrap;rounded=0;" parent="1" vertex="1">
          <mxGeometry x="850" y="380" width="60" height="30" as="geometry" />
        </mxCell>
        <mxCell id="T7eWR32zqZG63hrGAhfz-21" value="N" style="text;html=1;strokeColor=none;fillColor=none;align=center;verticalAlign=middle;whiteSpace=wrap;rounded=0;" parent="1" vertex="1">
          <mxGeometry x="430" y="380" width="60" height="30" as="geometry" />
        </mxCell>
        <mxCell id="T7eWR32zqZG63hrGAhfz-22" value="1" style="text;html=1;strokeColor=none;fillColor=none;align=center;verticalAlign=middle;whiteSpace=wrap;rounded=0;" parent="1" vertex="1">
          <mxGeometry x="730" y="80" width="60" height="30" as="geometry" />
        </mxCell>
        <mxCell id="T7eWR32zqZG63hrGAhfz-23" value="url_noticia" style="ellipse;whiteSpace=wrap;html=1;" parent="1" vertex="1">
          <mxGeometry x="1230" y="110" width="90" height="40" as="geometry" />
        </mxCell>
        <mxCell id="T7eWR32zqZG63hrGAhfz-24" value="xpath_fecha" style="ellipse;whiteSpace=wrap;html=1;" parent="1" vertex="1">
          <mxGeometry x="1230" y="175" width="90" height="40" as="geometry" />
        </mxCell>
        <mxCell id="T7eWR32zqZG63hrGAhfz-25" value="xpath_titulo" style="ellipse;whiteSpace=wrap;html=1;" parent="1" vertex="1">
          <mxGeometry x="1140" y="215" width="90" height="40" as="geometry" />
        </mxCell>
        <mxCell id="T7eWR32zqZG63hrGAhfz-26" value="xpath_contenido" style="ellipse;whiteSpace=wrap;html=1;" parent="1" vertex="1">
          <mxGeometry x="1000" y="210" width="110" height="40" as="geometry" />
        </mxCell>
        <mxCell id="T7eWR32zqZG63hrGAhfz-27" value="ultima_publicacion" style="ellipse;whiteSpace=wrap;html=1;" parent="1" vertex="1">
          <mxGeometry x="464" y="-100" width="106" height="50" as="geometry" />
        </mxCell>
        <mxCell id="T7eWR32zqZG63hrGAhfz-29" value="id_red" style="ellipse;whiteSpace=wrap;html=1;" parent="1" vertex="1">
          <mxGeometry x="130" y="-80" width="90" height="40" as="geometry" />
        </mxCell>
        <mxCell id="JVCDREUgWHspJGTQDBU8-2" value="id_medio" style="ellipse;whiteSpace=wrap;html=1;" vertex="1" parent="1">
          <mxGeometry x="484" y="120" width="90" height="40" as="geometry" />
        </mxCell>
        <mxCell id="JVCDREUgWHspJGTQDBU8-3" value="nombre" style="ellipse;whiteSpace=wrap;html=1;" vertex="1" parent="1">
          <mxGeometry x="610" y="65" width="90" height="40" as="geometry" />
        </mxCell>
        <mxCell id="JVCDREUgWHspJGTQDBU8-5" value="añoFundacion" style="ellipse;whiteSpace=wrap;html=1;" vertex="1" parent="1">
          <mxGeometry x="590" y="195" width="90" height="40" as="geometry" />
        </mxCell>
        <mxCell id="JVCDREUgWHspJGTQDBU8-6" value="cobertura" style="ellipse;whiteSpace=wrap;html=1;" vertex="1" parent="1">
          <mxGeometry x="690" y="40" width="90" height="40" as="geometry" />
        </mxCell>
        <mxCell id="JVCDREUgWHspJGTQDBU8-7" value="pais" style="ellipse;whiteSpace=wrap;html=1;" vertex="1" parent="1">
          <mxGeometry x="394" y="480" width="90" height="40" as="geometry" />
        </mxCell>
        <mxCell id="JVCDREUgWHspJGTQDBU8-8" value="continente" style="ellipse;whiteSpace=wrap;html=1;" vertex="1" parent="1">
          <mxGeometry x="465" y="410" width="90" height="40" as="geometry" />
        </mxCell>
        <mxCell id="JVCDREUgWHspJGTQDBU8-9" value="id_fundador" style="ellipse;whiteSpace=wrap;html=1;" vertex="1" parent="1">
          <mxGeometry x="1060" y="350" width="90" height="40" as="geometry" />
        </mxCell>
        <mxCell id="JVCDREUgWHspJGTQDBU8-10" value="id_ubicacion" style="ellipse;whiteSpace=wrap;html=1;" vertex="1" parent="1">
          <mxGeometry x="220" y="340" width="90" height="40" as="geometry" />
        </mxCell>
        <mxCell id="JVCDREUgWHspJGTQDBU8-16" value="&lt;div style=&quot;text-align: left;&quot;&gt;&lt;span style=&quot;font-size: medium; background-color: initial;&quot;&gt;Medio_de_prensa(PK_id_medio, añoFundacion, nombre, cobertura, FK_url_noticia)&lt;/span&gt;&lt;/div&gt;&lt;font size=&quot;3&quot;&gt;&lt;div style=&quot;text-align: left;&quot;&gt;&lt;span style=&quot;background-color: initial;&quot;&gt;Ubicacion(PK_id_ubicacion, comunidad_autonoma, ciudad, pais, continente, FK_id_medio)&lt;/span&gt;&lt;/div&gt;&lt;div style=&quot;text-align: left;&quot;&gt;&lt;span style=&quot;background-color: initial;&quot;&gt;Fundador(PK_id_fundador, nombre, apellido, nacionalidad, profesion)&lt;/span&gt;&lt;/div&gt;&lt;div style=&quot;text-align: left;&quot;&gt;Ejemplo_Noticia_xpath(PK_url_noticia, xpath_fecha, xpath_titulo, xpath_contenido, FK_id_medio)&lt;/div&gt;&lt;div style=&quot;text-align: left;&quot;&gt;Categoria(PK_url_principal, url_ejemplo, nombre, xpath, FK_id_medio)&lt;/div&gt;&lt;div style=&quot;text-align: left;&quot;&gt;Red_social(PK_id_red, nombre, usuario, seguidores, act_seguidores, ultima_publicacion, FK_id_medio)&lt;/div&gt;&lt;div style=&quot;text-align: left;&quot;&gt;&lt;br&gt;&lt;/div&gt;&lt;div style=&quot;text-align: left;&quot;&gt;fundacion(PK(FK_id_fundador, FK_id_medio))&lt;/div&gt;&lt;br&gt;&lt;/font&gt;" style="text;html=1;align=center;verticalAlign=middle;resizable=0;points=[];autosize=1;strokeColor=none;fillColor=none;" vertex="1" parent="1">
          <mxGeometry x="220" y="570" width="760" height="190" as="geometry" />
        </mxCell>
      </root>
    </mxGraphModel>
  </diagram>
</mxfile>
